<svg width="30" height="30" viewBox="0 0 30 30" fill="none" xmlns="http://www.w3.org/2000/svg">
<g id="Share">
<g id="Share_2">
<path id="Arrow 1" d="M14.497 17C14.497 17.2778 14.7222 17.503 15 17.503C15.2778 17.503 15.503 17.2778 15.503 17L14.497 17ZM15.3557 8.64429C15.1593 8.44784 14.8407 8.44784 14.6443 8.64429L11.4429 11.8457C11.2465 12.0421 11.2465 12.3606 11.4429 12.5571C11.6394 12.7535 11.9579 12.7535 12.1543 12.5571L15 9.71142L17.8457 12.5571C18.0421 12.7535 18.3606 12.7535 18.5571 12.5571C18.7535 12.3606 18.7535 12.0421 18.5571 11.8457L15.3557 8.64429ZM15.503 17L15.503 9L14.497 9L14.497 17L15.503 17Z" fill="#0E0F0C"/>
<path id="Vector 1" d="M9 15V18.9878C9 20.0991 9.90089 21 11.0122 21H18.9878C20.0991 21 21 20.0991 21 18.9878V15" stroke="#0E0F0C" stroke-width="1.0061" stroke-linecap="round" stroke-linejoin="round"/>
</g>
</g>
</svg>
